<svg xmlns="http://www.w3.org/2000/svg" version="1.1" xmlnsXlink="http://www.w3.org/1999/xlink" xmlnsSvgjs="http://svgjs.com/svgjs" width="1920" height="1080" preserveAspectRatio="none" viewBox="0 0 1920 1080"><g mask="url(&quot;#SvgjsMask1026&quot;)" fill="none"><rect width="1920" height="1080" x="0" y="0" fill="rgba(43, 43, 43, 1)"></rect><path d="M965 476L964 1262" stroke-width="8" stroke="url(#SvgjsLinearGradient1027)" stroke-linecap="round" class="Up"></path><path d="M1278 875L1277 272" stroke-width="10" stroke="url(#SvgjsLinearGradient1027)" stroke-linecap="round" class="Up"></path><path d="M1905 890L1904 1166" stroke-width="10" stroke="url(#SvgjsLinearGradient1027)" stroke-linecap="round" class="Up"></path><path d="M1033 550L1032 -70" stroke-width="6" stroke="url(#SvgjsLinearGradient1028)" stroke-linecap="round" class="Down"></path><path d="M1207 544L1206 73" stroke-width="8" stroke="url(#SvgjsLinearGradient1027)" stroke-linecap="round" class="Up"></path><path d="M1799 60L1798 451" stroke-width="6" stroke="url(#SvgjsLinearGradient1027)" stroke-linecap="round" class="Up"></path><path d="M1740 833L1739 121" stroke-width="8" stroke="url(#SvgjsLinearGradient1028)" stroke-linecap="round" class="Down"></path><path d="M514 487L513 1087" stroke-width="6" stroke="url(#SvgjsLinearGradient1028)" stroke-linecap="round" class="Down"></path><path d="M1531 711L1530 1017" stroke-width="6" stroke="url(#SvgjsLinearGradient1028)" stroke-linecap="round" class="Down"></path><path d="M720 759L719 486" stroke-width="10" stroke="url(#SvgjsLinearGradient1027)" stroke-linecap="round" class="Up"></path><path d="M484 762L483 263" stroke-width="8" stroke="url(#SvgjsLinearGradient1027)" stroke-linecap="round" class="Up"></path><path d="M1680 499L1679 59" stroke-width="8" stroke="url(#SvgjsLinearGradient1028)" stroke-linecap="round" class="Down"></path><path d="M1159 455L1158 731" stroke-width="8" stroke="url(#SvgjsLinearGradient1028)" stroke-linecap="round" class="Down"></path><path d="M192 398L191 -385" stroke-width="10" stroke="url(#SvgjsLinearGradient1028)" stroke-linecap="round" class="Down"></path><path d="M124 672L123 242" stroke-width="10" stroke="url(#SvgjsLinearGradient1028)" stroke-linecap="round" class="Down"></path><path d="M1486 908L1485 378" stroke-width="6" stroke="url(#SvgjsLinearGradient1027)" stroke-linecap="round" class="Up"></path><path d="M494 496L493 69" stroke-width="6" stroke="url(#SvgjsLinearGradient1027)" stroke-linecap="round" class="Up"></path><path d="M771 18L770 740" stroke-width="6" stroke="url(#SvgjsLinearGradient1028)" stroke-linecap="round" class="Down"></path><path d="M307 263L306 -94" stroke-width="8" stroke="url(#SvgjsLinearGradient1027)" stroke-linecap="round" class="Up"></path><path d="M958 306L957 1110" stroke-width="8" stroke="url(#SvgjsLinearGradient1028)" stroke-linecap="round" class="Down"></path><path d="M368 764L367 26" stroke-width="6" stroke="url(#SvgjsLinearGradient1028)" stroke-linecap="round" class="Down"></path><path d="M1300 619L1299 20" stroke-width="6" stroke="url(#SvgjsLinearGradient1027)" stroke-linecap="round" class="Up"></path><path d="M1515 428L1514 -14" stroke-width="6" stroke="url(#SvgjsLinearGradient1028)" stroke-linecap="round" class="Down"></path><path d="M205 914L204 434" stroke-width="10" stroke="url(#SvgjsLinearGradient1027)" stroke-linecap="round" class="Up"></path><path d="M1668 86L1667 -191" stroke-width="6" stroke="url(#SvgjsLinearGradient1027)" stroke-linecap="round" class="Up"></path><path d="M46 772L45 1448" stroke-width="6" stroke="url(#SvgjsLinearGradient1027)" stroke-linecap="round" class="Up"></path><path d="M1246 169L1245 -333" stroke-width="6" stroke="url(#SvgjsLinearGradient1028)" stroke-linecap="round" class="Down"></path><path d="M1784 252L1783 769" stroke-width="6" stroke="url(#SvgjsLinearGradient1028)" stroke-linecap="round" class="Down"></path><path d="M1026 513L1025 -219" stroke-width="6" stroke="url(#SvgjsLinearGradient1028)" stroke-linecap="round" class="Down"></path><path d="M1447 40L1446 550" stroke-width="8" stroke="url(#SvgjsLinearGradient1027)" stroke-linecap="round" class="Up"></path><path d="M1542 1008L1541 277" stroke-width="8" stroke="url(#SvgjsLinearGradient1027)" stroke-linecap="round" class="Up"></path><path d="M292 112L291 621" stroke-width="6" stroke="url(#SvgjsLinearGradient1028)" stroke-linecap="round" class="Down"></path><path d="M1617 470L1616 -116" stroke-width="6" stroke="url(#SvgjsLinearGradient1027)" stroke-linecap="round" class="Up"></path><path d="M463 875L462 285" stroke-width="6" stroke="url(#SvgjsLinearGradient1028)" stroke-linecap="round" class="Down"></path><path d="M1608 881L1607 410" stroke-width="8" stroke="url(#SvgjsLinearGradient1027)" stroke-linecap="round" class="Up"></path><path d="M843 1022L842 1313" stroke-width="8" stroke="url(#SvgjsLinearGradient1028)" stroke-linecap="round" class="Down"></path><path d="M1160 120L1159 514" stroke-width="10" stroke="url(#SvgjsLinearGradient1027)" stroke-linecap="round" class="Up"></path><path d="M64 403L63 66" stroke-width="6" stroke="url(#SvgjsLinearGradient1028)" stroke-linecap="round" class="Down"></path><path d="M782 620L781 1173" stroke-width="8" stroke="url(#SvgjsLinearGradient1028)" stroke-linecap="round" class="Down"></path><path d="M1306 408L1305 -155" stroke-width="10" stroke="url(#SvgjsLinearGradient1028)" stroke-linecap="round" class="Down"></path><path d="M438 53L437 -456" stroke-width="10" stroke="url(#SvgjsLinearGradient1028)" stroke-linecap="round" class="Down"></path><path d="M1230 638L1229 1442" stroke-width="10" stroke="url(#SvgjsLinearGradient1027)" stroke-linecap="round" class="Up"></path><path d="M906 301L905 1092" stroke-width="8" stroke="url(#SvgjsLinearGradient1028)" stroke-linecap="round" class="Down"></path><path d="M1155 498L1154 -204" stroke-width="8" stroke="url(#SvgjsLinearGradient1027)" stroke-linecap="round" class="Up"></path><path d="M655 209L654 866" stroke-width="8" stroke="url(#SvgjsLinearGradient1027)" stroke-linecap="round" class="Up"></path><path d="M821 359L820 831" stroke-width="8" stroke="url(#SvgjsLinearGradient1028)" stroke-linecap="round" class="Down"></path><path d="M274 62L273 486" stroke-width="8" stroke="url(#SvgjsLinearGradient1027)" stroke-linecap="round" class="Up"></path><path d="M626 918L625 1680" stroke-width="10" stroke="url(#SvgjsLinearGradient1027)" stroke-linecap="round" class="Up"></path></g><defs><mask id="SvgjsMask1026"><rect width="1920" height="1080" fill="#ffffff"></rect></mask><linearGradient x1="0%" y1="100%" x2="0%" y2="0%" id="SvgjsLinearGradient1027"><stop stop-color="rgba(240, 219, 79, 0)" offset="0"></stop><stop stop-color="rgba(240, 219, 79, 1)" offset="1"></stop></linearGradient><linearGradient x1="0%" y1="0%" x2="0%" y2="100%" id="SvgjsLinearGradient1028"><stop stop-color="rgba(240, 219, 79, 0)" offset="0"></stop><stop stop-color="rgba(240, 219, 79, 1)" offset="1"></stop></linearGradient></defs></svg>